<svg xmlns="http://www.w3.org/2000/svg" xmlns:xlink="http://www.w3.org/1999/xlink" width="32" height="1184" viewBox="0 0 32 1184">
	<defs></defs>
	<symbol id="icon-arrow" viewBox="0 0 32 32">
		<title>arrow</title>
		<path d="M31.481 15.86l-15.341-14.783-3.905 4.463 8.368 7.252h-20.083v6.415h19.804l-8.368 7.252 3.905 4.463 15.62-15.062z"></path>
	</symbol>
	<symbol id="icon-arrow-2" viewBox="0 0 32 32">
		<title>arrow-2</title>
		<path d="M31.4 16l-12.576-12.833-3.85 3.593 9.24 9.24-9.24 8.983 3.85 3.85 8.983-9.24z"></path>
		<path d="M17.027 16l-12.833-12.833-3.593 3.593 8.983 9.24-8.983 8.983 3.593 3.85 8.983-9.24z"></path>
	</symbol>
	<symbol id="icon-search" viewBox="0 0 32 32">
		<title>search</title>
		<path d="M30.822 27.467l-6.71-6.71c0 0-0.129 0-0.129-0.129 1.419-2.064 2.194-4.516 2.194-7.226v-0.258c0-6.968-5.677-12.645-12.645-12.645h-0.387c-6.968 0-12.645 5.677-12.645 12.645v0.387c0 6.968 5.677 12.645 12.645 12.645h0.387c2.71 0 5.161-0.774 7.226-2.194 0 0 0 0.129 0.129 0.129l6.71 6.71c0.903 0.903 2.322 0.903 3.226 0v0c0.903-1.032 0.903-2.452 0-3.355zM13.532 22.306h-0.387c-4.903 0-8.774-4-8.774-8.774v-0.387c0-4.774 4-8.774 8.774-8.774h0.387c4.903 0 8.774 4 8.774 8.774v0.387c0 4.903-3.871 8.774-8.774 8.774z"></path>
	</symbol>
	<symbol id="icon-close" viewBox="0 0 32 32">
		<title>close</title>
		<path d="M31.499 3.621l-12.379 12.379 12.379 12.379-3.121 3.121-12.379-12.379-12.379 12.379-3.121-3.121 12.379-12.379-12.379-12.379 3.121-3.121 12.379 12.379 12.379-12.379z"></path>
	</symbol>
	<symbol id="icon-facebook" viewBox="0 0 32 32">
		<title>facebook</title>
		<path d="M18.906 6.313h4.844v-5.812h-4.844c-3.739 0-6.781 3.042-6.781 6.781v2.906h-3.875v5.812h3.875v15.5h5.812v-15.5h4.844l0.969-5.812h-5.812v-2.906c0-0.525 0.444-0.969 0.969-0.969z"></path>
	</symbol>
	<symbol id="icon-twitter" viewBox="0 0 32 32">
		<title>twitter</title>
		<path d="M31.384 6.459c-1.13 0.505-2.349 0.841-3.623 0.991 1.304-0.782 2.301-2.019 2.775-3.491-1.22 0.721-2.572 1.25-4.008 1.532-1.154-1.226-2.794-1.989-4.609-1.989-3.485 0-6.309 2.824-6.309 6.309 0 0.492 0.054 0.973 0.162 1.436-5.245-0.264-9.896-2.776-13.008-6.597-0.541 0.932-0.853 2.019-0.853 3.172 0 2.187 1.111 4.121 2.806 5.252-1.033-0.030-2.006-0.318-2.86-0.787 0 0.024 0 0.054 0 0.078 0 3.058 2.176 5.612 5.065 6.188-0.529 0.144-1.087 0.222-1.664 0.222-0.409 0-0.799-0.042-1.189-0.114 0.806 2.505 3.137 4.332 5.894 4.387-2.163 1.694-4.879 2.704-7.841 2.704-0.51 0-1.009-0.030-1.508-0.090 2.8 1.797 6.116 2.836 9.68 2.836 11.608 0 17.959-9.619 17.959-17.959 0-0.276-0.006-0.547-0.018-0.817 1.232-0.883 2.301-1.995 3.148-3.263z"></path>
	</symbol>
	<symbol id="icon-instagram" viewBox="0 0 32 32">
		<title>instagram</title>
		<path d="M22.264 0.5h-12.53c-5.098 0.006-9.229 4.138-9.234 9.235v12.531c0.006 5.098 4.138 9.229 9.235 9.234h12.531c5.098-0.006 9.229-4.137 9.234-9.235v-12.531c-0.006-5.098-4.137-9.229-9.235-9.234h-0.001zM28.382 22.264c0 3.379-2.739 6.118-6.118 6.118v0h-12.53c-3.378-0.001-6.116-2.739-6.116-6.118v0-12.53c0.001-3.378 2.739-6.116 6.118-6.116h12.53c3.378 0.001 6.116 2.739 6.116 6.118v0 12.53z"></path>
		<path d="M15.999 7.983c-4.424 0.007-8.009 3.592-8.015 8.016v0.001c0.005 4.426 3.591 8.012 8.016 8.018h0.001c4.426-0.005 8.013-3.592 8.018-8.018v-0.001c-0.007-4.425-3.594-8.011-8.019-8.015h-0zM15.999 20.899c-2.706 0-4.899-2.193-4.899-4.899s2.193-4.899 4.899-4.899v0c2.706 0 4.899 2.193 4.899 4.899s-2.193 4.899-4.899 4.899v0z"></path>
		<path d="M25.953 8.043c0 1.061-0.86 1.921-1.921 1.921s-1.921-0.86-1.921-1.921c0-1.061 0.86-1.921 1.921-1.921s1.921 0.86 1.921 1.921z"></path>
	</symbol>
	<symbol id="icon-whatsapp" viewBox="0 0 32 32">
		<title>whatsapp</title>
		<path d="M26.573 5.359c-2.807-2.813-6.539-4.359-10.518-4.359-8.191 0-14.859 6.668-14.859 14.865 0 2.619 0.686 5.18 1.986 7.43l-2.109 7.705 7.881-2.068c2.174 1.184 4.617 1.811 7.102 1.811h0.006c0 0 0 0 0 0 8.191 0 14.865-6.668 14.865-14.865 0-3.973-1.547-7.705-4.354-10.518zM16.061 28.234v0c-2.221 0-4.395-0.598-6.293-1.723l-0.451-0.27-4.676 1.225 1.248-4.559-0.293-0.469c-1.242-1.963-1.893-4.236-1.893-6.574 0-6.814 5.543-12.357 12.363-12.357 3.299 0 6.404 1.289 8.736 3.621 2.332 2.338 3.615 5.438 3.615 8.742-0.006 6.82-5.549 12.363-12.357 12.363zM22.835 18.976c-0.369-0.188-2.197-1.084-2.537-1.207s-0.586-0.188-0.838 0.188c-0.246 0.369-0.961 1.207-1.178 1.459-0.217 0.246-0.434 0.281-0.803 0.094s-1.57-0.58-2.988-1.846c-1.102-0.984-1.852-2.203-2.068-2.572s-0.023-0.574 0.164-0.756c0.17-0.164 0.369-0.434 0.557-0.65s0.246-0.369 0.369-0.621c0.123-0.246 0.064-0.463-0.029-0.65s-0.838-2.016-1.143-2.76c-0.299-0.727-0.609-0.627-0.838-0.639-0.217-0.012-0.463-0.012-0.709-0.012s-0.65 0.094-0.99 0.463c-0.34 0.369-1.301 1.271-1.301 3.1s1.33 3.592 1.518 3.844c0.188 0.246 2.619 4.002 6.346 5.607 0.885 0.381 1.576 0.609 2.115 0.785 0.891 0.281 1.699 0.24 2.338 0.146 0.715-0.105 2.197-0.896 2.508-1.764s0.311-1.611 0.217-1.764c-0.088-0.164-0.334-0.258-0.709-0.445z"></path>
	</symbol>
	<symbol id="icon-address" viewBox="0 0 32 32">
		<title>address</title>
		<path d="M16 31.5c-7.362-9.429-10.979-16.146-10.979-20.15 0-5.942 4.908-10.85 10.979-10.85s10.979 4.908 10.979 10.85c0 4.004-3.617 10.721-10.979 20.15zM16 17.55c3.487 0 6.329-2.712 6.329-6.2s-2.842-6.2-6.329-6.2-6.329 2.712-6.329 6.2 2.842 6.2 6.329 6.2z"></path>
	</symbol>
	<symbol id="icon-calendar" viewBox="0 0 32 32">
		<title>calendar</title>
		<path d="M14.457 5.457v-1.414c0-0.771 0.643-1.543 1.543-1.543s1.543 0.643 1.543 1.543v1.543h4.628v-1.543c0-0.771 0.643-1.543 1.543-1.543s1.543 0.643 1.543 1.543v1.543h1.543c2.571 0 4.628 2.057 4.628 4.5v14.914c0 2.443-2.057 4.5-4.628 4.5h-21.599c-2.571 0-4.628-2.057-4.628-4.5v-15.042c0-2.443 2.057-4.5 4.628-4.5h1.543v-1.414c0-0.9 0.643-1.543 1.543-1.543s1.543 0.643 1.543 1.543v1.543h4.628zM14.457 8.543h-4.628v1.543c0 0.771-0.643 1.414-1.543 1.414s-1.543-0.643-1.543-1.543v-1.414h-1.543c-0.9 0-1.543 0.643-1.543 1.543v14.914c0 0.771 0.643 1.543 1.543 1.543h21.599c0.9 0 1.543-0.643 1.543-1.543v-15.042c0-0.771-0.643-1.543-1.543-1.543h-1.543v1.543c0 0.771-0.643 1.543-1.543 1.543s-1.543-0.643-1.543-1.543v-1.414h-4.628v1.543c0 0.771-0.643 1.543-1.543 1.543s-1.543-0.771-1.543-1.671v-1.414zM5.201 14.457h3.086v2.957h-3.086v-2.957zM5.201 20.5h3.086v2.957h-3.086v-2.957zM23.714 20.5h3.086v2.957h-3.086v-2.957zM23.714 14.457h3.086v2.957h-3.086v-2.957zM11.372 14.457h3.086v2.957h-3.086v-2.957zM17.543 14.457h3.086v2.957h-3.086v-2.957zM17.543 20.5h3.086v2.957h-3.086v-2.957zM11.372 20.5h3.086v2.957h-3.086v-2.957z"></path>
	</symbol>
	<symbol id="icon-email-1" viewBox="0 0 32 32">
		<title>email-1</title>
		<path d="M6.189 8.291l8.792 7.9c0.637 0.51 1.402 0.51 2.039 0l8.792-7.9h-19.622zM28.232 10.33l-9.174 8.282c-1.784 1.529-4.332 1.529-6.116 0l-9.174-8.282v13.506h24.464v-13.506zM3.768 5.233h24.464c1.656 0 3.058 1.402 3.058 3.058v15.417c0 1.656-1.402 3.058-3.058 3.058h-24.464c-1.656 0-3.058-1.402-3.058-3.058v-15.417c0-1.656 1.402-3.058 3.058-3.058z"></path>
	</symbol>
	<symbol id="icon-email-2" viewBox="0 0 32 32">
		<title>email-2</title>
		<path d="M4.181 11.092l10.85 9.687c0.646 0.517 1.421 0.517 2.067 0l10.85-9.687-11.108-7.233c-0.517-0.388-1.162-0.388-1.679 0l-10.979 7.233zM28.464 11.479v3.358l-9.3 8.266c-1.808 1.55-4.392 1.55-6.2 0l-9.3-8.266v-3.358 16.92h24.799v-16.92zM1.986 8.767l11.495-7.491c1.55-1.033 3.487-1.033 5.037 0l11.495 7.621c0.904 0.517 1.421 1.55 1.421 2.583v16.92c0 1.679-1.421 3.1-3.1 3.1h-24.67c-1.679 0-3.1-1.421-3.1-3.1v-16.92c0-1.033 0.517-2.067 1.421-2.712z"></path>
	</symbol>
	<symbol id="icon-email-3" viewBox="0 0 32 32">
		<title>email-3</title>
		<path d="M30.337 9.025l-13.304 11.754c-0.646 0.517-1.421 0.517-2.067 0l-13.433-11.754c0.129 0 0.258-0.129 0.387-0.258l11.496-7.492c1.55-1.033 3.487-1.033 5.037 0l11.496 7.621c0.258 0 0.258 0 0.387 0.129v0zM31.5 12.383v16.016c0 1.679-1.421 3.1-3.1 3.1h-24.8c-1.679 0-3.1-1.421-3.1-3.1v-16.016l12.4 10.721c1.808 1.55 4.392 1.55 6.2 0l12.4-10.721z"></path>
	</symbol>
	<symbol id="icon-fax" viewBox="0 0 32 32">
		<title>fax</title>
		<path d="M25.3 22.2h1.55c0.904 0 1.55-0.646 1.55-1.55v-9.3c0-0.904-0.646-1.55-1.55-1.55h-21.7c-0.904 0-1.55 0.646-1.55 1.55v9.3c0 0.904 0.646 1.55 1.55 1.55h1.55v-7.75h18.6v7.75zM6.7 6.7v-6.2h18.6v6.2h1.55c2.583 0 4.65 2.067 4.65 4.65v9.3c0 2.583-2.067 4.65-4.65 4.65h-1.55v6.2h-18.6v-6.2h-1.55c-2.583 0-4.65-2.067-4.65-4.65v-9.3c0-2.583 2.067-4.65 4.65-4.65h1.55zM9.8 28.4h12.4v-10.85h-12.4v10.85zM9.8 6.7h12.4v-3.1h-12.4v3.1z"></path>
	</symbol>
	<symbol id="icon-gallery" viewBox="0 0 32 32">
		<title>gallery</title>
		<path fill="none" stroke="#fff" stroke-width="0.8" stroke-miterlimit="10" stroke-linecap="butt" stroke-linejoin="miter" d="M4.547 28.077h-3.307v-26.452h26.452v3.307"></path>
		<path d="M30.23 5.316v24.914h-24.991v-24.914h24.991zM30.999 4.547h-26.529v26.452h26.452v-26.452h0.077z"></path>
		<path d="M16.081 16.158h3.307v3.307h-3.307v-3.307z"></path>
		<path d="M22.694 16.158h3.307v3.307h-3.307v-3.307z"></path>
		<path d="M9.468 16.158h3.307v3.307h-3.307v-3.307z"></path>
	</symbol>
	<symbol id="icon-phone" viewBox="0 0 32 32">
		<title>phone</title>
		<path d="M11.479 0.5h9.042c2.454 0 4.521 2.067 4.521 4.65v21.7c0 2.583-2.067 4.65-4.521 4.65h-9.042c-2.454 0-4.521-2.067-4.521-4.65v-21.7c0-2.583 2.067-4.65 4.521-4.65zM11.479 3.6c-0.775 0-1.55 0.646-1.55 1.55v21.7c0 0.904 0.646 1.55 1.55 1.55h9.042c0.775 0 1.55-0.646 1.55-1.55v-21.7c0-0.904-0.646-1.55-1.55-1.55h-9.042zM16 26.85c-0.775 0-1.55-0.646-1.55-1.55s0.646-1.55 1.55-1.55 1.55 0.646 1.55 1.55c0 0.904-0.775 1.55-1.55 1.55z"></path>
	</symbol>
	<symbol id="icon-play" viewBox="0 0 32 32">
		<title>play</title>
		<path d="M16 2.050c7.672 0 13.95 6.277 13.95 13.95s-6.277 13.95-13.95 13.95-13.95-6.277-13.95-13.95 6.277-13.95 13.95-13.95zM16 0.5c-8.525 0-15.5 6.975-15.5 15.5s6.975 15.5 15.5 15.5 15.5-6.975 15.5-15.5-6.975-15.5-15.5-15.5v0z"></path>
		<path d="M20.96 15.922l-8.525-5.037v10.075z"></path>
	</symbol>
	<symbol id="icon-quote" viewBox="0 0 32 32">
		<title>quote</title>
		<path d="M31.228 13.228c0-3.96-3.229-7.189-7.189-7.189s-7.25 3.168-7.25 7.189c0 2.011 0.853 3.656 2.193 4.752 0 0 0 0 0 0 5.544 4.143 0 7.981 0 7.981s0.366 0 0.914 0c12.002-5.91 11.332-12.734 11.332-12.734z"></path>
		<path d="M15.204 13.228c0-3.96-3.229-7.189-7.189-7.189s-7.25 3.168-7.25 7.189c0 2.011 0.853 3.656 2.193 4.752 0 0 0 0 0 0 5.544 4.143 0 7.981 0 7.981s0.366 0 0.914 0c12.002-5.91 11.332-12.734 11.332-12.734z"></path>
	</symbol>
	<symbol id="icon-upload" viewBox="0 0 32 32">
		<title>upload</title>
		<path fill="#181818" d="M0 0h32v32h-32v-32z"></path>
		<path fill="#fff" d="M16.8 13.12v4.48c0 0.48-0.32 0.8-0.8 0.8s-0.8-0.32-0.8-0.8v-4.48l-0.88 0.88c-0.32 0.32-0.8 0.32-1.12 0s-0.32-0.8 0-1.12v0l2.24-2.24c0.32-0.32 0.8-0.32 1.12 0l2.24 2.24c0.32 0.32 0.32 0.8 0 1.12s-0.8 0.32-1.12 0v0l-0.88-0.88zM11.2 20h9.6c0.48 0 0.8 0.32 0.8 0.8s-0.32 0.8-0.8 0.8h-9.6c-0.48 0-0.8-0.32-0.8-0.8s0.32-0.8 0.8-0.8z"></path>
	</symbol>
	<symbol id="icon-link" viewBox="0 0 32 32">
		<title>link</title>
		<path d="M13.847 19.713c-0.399 0-0.798-0.152-1.103-0.457-2.854-2.854-2.854-7.498 0-10.352l5.76-5.76c1.383-1.383 3.221-2.144 5.176-2.144s3.793 0.761 5.176 2.144c2.854 2.854 2.854 7.498 0 10.352l-2.633 2.633c-0.609 0.609-1.597 0.609-2.206 0s-0.609-1.597 0-2.206l2.633-2.633c1.637-1.638 1.637-4.302 0-5.94-0.793-0.793-1.848-1.23-2.97-1.23s-2.176 0.437-2.97 1.23l-5.76 5.76c-1.638 1.638-1.638 4.302 0 5.94 0.609 0.609 0.609 1.597 0 2.206-0.304 0.305-0.704 0.457-1.103 0.457z"></path>
		<path d="M8.32 31c-1.955 0-3.793-0.761-5.176-2.144-2.854-2.854-2.854-7.498 0-10.352l2.633-2.633c0.609-0.609 1.597-0.609 2.206 0s0.609 1.597 0 2.206l-2.633 2.633c-1.638 1.638-1.638 4.302 0 5.94 0.793 0.793 1.848 1.23 2.97 1.23s2.176-0.437 2.97-1.23l5.76-5.76c1.637-1.638 1.637-4.302 0-5.94-0.609-0.609-0.609-1.597 0-2.206s1.597-0.609 2.206 0c2.854 2.854 2.854 7.498 0 10.352l-5.76 5.76c-1.383 1.383-3.221 2.144-5.176 2.144z"></path>
	</symbol>
	<symbol id="icon-linkedin" viewBox="0 0 32 32">
		<title>linkedin</title>
		<path d="M11.736 10.67h5.899v3.024h0.084c0.821-1.472 2.83-3.024 5.824-3.024 6.227 0 7.379 3.876 7.379 8.918v10.268h-6.149v-9.103c0-2.171-0.044-4.964-3.199-4.964-3.203 0-3.691 2.364-3.691 4.806v9.26h-6.147v-19.186z"></path>
		<path d="M1.078 10.67h6.395v19.186h-6.395v-19.186z"></path>
		<path d="M7.473 5.341c0 1.766-1.432 3.198-3.198 3.198s-3.198-1.432-3.198-3.198c0-1.766 1.432-3.198 3.198-3.198s3.198 1.432 3.198 3.198z"></path>
	</symbol>
	<symbol id="icon-pin" viewBox="0 0 32 32">
		<title>pin</title>
		<path d="M16 31.499l-0.074-0.111q-1.069-1.582-2.086-3.052c-4.863-7.091-8.375-12.244-8.375-17.3 0-5.819 4.717-10.536 10.536-10.536s10.536 4.717 10.536 10.536v0c0 5.094-3.527 10.232-8.405 17.345-0.661 0.965-1.351 1.968-2.057 3.007z"></path>
	</symbol>
	<symbol id="icon-clock" viewBox="0 0 32 32">
		<title>clock</title>
		<path d="M17.55 14.45h6.2c0.856 0 1.55 0.694 1.55 1.55s-0.694 1.55-1.55 1.55v0h-7.75c-0.856 0-1.55-0.694-1.55-1.55v0-9.3c0-0.856 0.694-1.55 1.55-1.55s1.55 0.694 1.55 1.55v0zM16 31.5c-8.56 0-15.5-6.939-15.5-15.5s6.939-15.5 15.5-15.5c8.56 0 15.5 6.939 15.5 15.5v0c0 8.56-6.939 15.5-15.5 15.5v0zM16 28.4c6.848 0 12.4-5.552 12.4-12.4s-5.552-12.4-12.4-12.4c-6.848 0-12.4 5.552-12.4 12.4v0c0 6.848 5.552 12.4 12.4 12.4v0z"></path>
	</symbol>
	<symbol id="icon-user" viewBox="0 0 32 32">
		<title>user</title>
		<path d="M22.72 7.389c0 3.804-3.084 6.888-6.888 6.888s-6.888-3.084-6.888-6.888c0-3.804 3.084-6.888 6.888-6.888s6.888 3.084 6.888 6.888z"></path>
		<path d="M27.887 26.333v0c0-0.086 0-0.172 0-0.258 0.004-0.069 0.006-0.151 0.006-0.232s-0.002-0.163-0.007-0.244l0.001 0.011c-0.055-0.792-0.178-1.527-0.363-2.237l0.019 0.084c-1.378-4.822-6.079-7.457-11.71-7.457s-10.333 2.635-11.676 7.457v0c0 0.31-0.138 0.603-0.189 0.913-0.004 0.057-0.006 0.123-0.006 0.189s0.002 0.133 0.007 0.198l-0.001-0.009c0 0.207 0 0.413 0 0.62-0.027 0.338-0.043 0.731-0.043 1.128s0.016 0.79 0.046 1.179l-0.003-0.051c1.722 1.722 5.545 3.875 12.055 3.875s10.333-2.221 12.055-3.944c-0.189-0.344-0.189-0.775-0.189-1.223z"></path>
	</symbol>
	<symbol id="icon-mark" viewBox="0 0 32 32">
		<title>mark</title>
		<path d="M8.733 31.499c-0.438-1.226-0.919-2.408-1.401-3.546s-1.007-2.189-1.576-3.239-1.138-2.101-1.795-3.152-1.357-2.057-2.145-3.152l4.115-2.67c1.138 1.795 2.145 3.634 3.064 5.428 0.775 1.479 1.6 3.326 2.324 5.224l0.127 0.38c0.96-3.164 1.897-5.705 2.956-8.182l-0.198 0.521c1.098-2.86 2.202-5.225 3.445-7.502l-0.162 0.323c1.449-2.385 2.893-4.429 4.462-6.367l-0.084 0.107c1.395-1.913 2.831-3.599 4.382-5.17l-0.005 0.005 3.94 3.415c-1.555 1.471-2.988 3.029-4.308 4.681l-0.070 0.091c-1.337 1.737-2.64 3.696-3.807 5.744l-0.133 0.254c-1.231 2.049-2.448 4.467-3.493 6.975l-0.14 0.379c-1.006 2.321-2.035 5.231-2.888 8.215l-0.132 0.54z"></path>
	</symbol>
	<view id="arrow" viewBox="0 0 32 32" />
	<view id="arrow-2" viewBox="0 32 32 32" />
	<view id="search" viewBox="0 64 32 32" />
	<view id="close" viewBox="0 96 32 32" />
	<view id="facebook" viewBox="0 128 32 32" />
	<view id="twitter" viewBox="0 160 32 32" />
	<view id="instagram" viewBox="0 192 32 32" />
	<view id="whatsapp" viewBox="0 224 32 32" />
	<view id="address" viewBox="0 256 32 32" />
	<view id="calendar" viewBox="0 288 32 32" />
	<view id="email-1" viewBox="0 320 32 32" />
	<view id="email-2" viewBox="0 352 32 32" />
	<view id="email-3" viewBox="0 384 32 32" />
	<view id="fax" viewBox="0 416 32 32" />
	<view id="gallery" viewBox="0 448 32 32" />
	<view id="phone" viewBox="0 480 32 32" />
	<view id="play" viewBox="0 512 32 32" />
	<view id="quote" viewBox="0 544 32 32" />
	<view id="upload" viewBox="0 576 32 32" />
	<view id="link" viewBox="0 672 32 32" />
	<view id="linkedin" viewBox="0 704 32 32" />
	<view id="pin" viewBox="0 800 32 32" />
	<view id="clock" viewBox="0 832 32 32" />
	<view id="user" viewBox="0 896 32 32" />
	<view id="mark" viewBox="0 960 32 32" />
	<use xlink:href="#icon-arrow" width="32" height="32" x="0" y="0" style="fill:#3101a3"></use>
	<use xlink:href="#icon-arrow-2" width="32" height="32" x="0" y="32" style="fill:#fff"></use>
	<use xlink:href="#icon-search" width="32" height="32" x="0" y="64" style="fill:#fff"></use>
	<use xlink:href="#icon-close" width="32" height="32" x="0" y="96" style="fill:#fff"></use>
	<use xlink:href="#icon-facebook" width="32" height="32" x="0" y="128"></use>
	<use xlink:href="#icon-twitter" width="32" height="32" x="0" y="160"></use>
	<use xlink:href="#icon-instagram" width="32" height="32" x="0" y="192"></use>
	<use xlink:href="#icon-whatsapp" width="32" height="32" x="0" y="224"></use>
	<use xlink:href="#icon-address" width="32" height="32" x="0" y="256"></use>
	<use xlink:href="#icon-calendar" width="32" height="32" x="0" y="288" style="fill:#fff"></use>
	<use xlink:href="#icon-email-1" width="32" height="32" x="0" y="320"></use>
	<use xlink:href="#icon-email-2" width="32" height="32" x="0" y="352"></use>
	<use xlink:href="#icon-email-3" width="32" height="32" x="0" y="384"></use>
	<use xlink:href="#icon-fax" width="32" height="32" x="0" y="416"></use>
	<use xlink:href="#icon-gallery" width="32" height="32" x="0" y="448" style="fill:#fff"></use>
	<use xlink:href="#icon-phone" width="32" height="32" x="0" y="480"></use>
	<use xlink:href="#icon-play" width="32" height="32" x="0" y="512" style="fill:#fff"></use>
	<use xlink:href="#icon-quote" width="32" height="32" x="0" y="544" style="fill:#ccc"></use>
	<use xlink:href="#icon-upload" width="32" height="32" x="0" y="576"></use>
	<use xlink:href="#icon-arrow" width="32" height="32" x="0" y="608" style="fill:#fff"></use>
	<use xlink:href="#icon-close" width="32" height="32" x="0" y="640" style="fill:#181818"></use>
	<use xlink:href="#icon-link" width="32" height="32" x="0" y="672" style="fill:#fff"></use>
	<use xlink:href="#icon-linkedin" width="32" height="32" x="0" y="704" style="fill:#fff"></use>
	<use xlink:href="#icon-linkedin" width="32" height="32" x="0" y="736"></use>
	<use xlink:href="#icon-arrow-2" width="32" height="32" x="0" y="768" style="fill:#181818"></use>
	<use xlink:href="#icon-pin" width="32" height="32" x="0" y="800" style="fill:#fff; stroke:#181818; stroke-width:.5px"></use>
	<use xlink:href="#icon-clock" width="32" height="32" x="0" y="832" style="fill:#585858"></use>
	<use xlink:href="#icon-calendar" width="32" height="32" x="0" y="864" style="fill:#181818"></use>
	<use xlink:href="#icon-user" width="32" height="32" x="0" y="896" style="fill:#fff"></use>
	<use xlink:href="#icon-user" width="32" height="32" x="0" y="928" style="fill:#181818"></use>
	<use xlink:href="#icon-mark" width="32" height="32" x="0" y="960" style="fill:#793ffe"></use>
	<use xlink:href="#icon-link" width="32" height="32" x="0" y="992"></use>
	<use xlink:href="#icon-quote" width="32" height="32" x="0" y="1024" style="fill:#d25400"></use>
	<use xlink:href="#icon-play" width="32" height="32" x="0" y="1056" style="fill:#000"></use>
	<use xlink:href="#icon-facebook" width="32" height="32" x="0" y="1088" style="fill:#fff"></use>
	<use xlink:href="#icon-twitter" width="32" height="32" x="0" y="1120" style="fill:#fff"></use>
	<use xlink:href="#icon-whatsapp" width="32" height="32" x="0" y="1152" style="fill:#fff"></use>
</svg>
